<svg xmlns="http://www.w3.org/2000/svg" xmlns:xlink="http://www.w3.org/1999/xlink" xmlns:lucid="lucid" width="1808" height="440.94"><g transform="translate(0 0)" lucid:page-tab-id="DywKbt8OyHn~"><path d="M320 200c0 22.1-17.9 40-40 40s-40-17.9-40-40 17.9-40 40-40 40 17.9 40 40z" stroke="#000" stroke-width="5" fill="#fff"/><use xlink:href="#a" transform="matrix(1,0,0,1,245,165) translate(28.39388888888889 42.9375)"/><path d="M1198.75 200.04c0 22.1-17.9 40-40 40s-40-17.9-40-40 17.9-40 40-40 40 17.9 40 40z" stroke="#000" stroke-width="5" fill="#fff"/><use xlink:href="#b" transform="matrix(1,0,0,1,1123.7492203503894,165.0404219989424) translate(28.39388888888889 42.9375)"/><path d="M800 160.04h240v80H800z" stroke="#000" stroke-width="5" fill="#fff"/><use xlink:href="#c" transform="matrix(1,0,0,1,805.0000000000001,165.0404219989424) translate(39.55555555555554 42.9375)"/><path d="M1045 200.04h68.75" stroke="#000" stroke-width="5" fill="none"/><path d="M1045.06 202.54h-2.56v-5h2.56zM1116.25 200l.1 2.54h-2.67v-5h2.72z"/><path d="M960 320c0 22.1-17.9 40-40 40s-40-17.9-40-40 17.9-40 40-40 40 17.9 40 40z" stroke="#000" stroke-width="5" fill="#fff"/><use xlink:href="#d" transform="matrix(1,0,0,1,885.0000000000001,285) translate(29.449444444444445 42.9375)"/><path d="M1045 200.04h13.75c11.04 0 20 8.95 20 20V300c0 11.05-8.96 20-20 20H965" stroke="#000" stroke-width="5" fill="none"/><path d="M1045.06 202.54h-2.56v-5h2.56zM965.07 322.5h-2.72l.15-2.47-.1-2.53h2.67z"/><path d="M875 320h-97.5c-11.05 0-20-8.95-20-20v-79.96c0-11.05 8.95-20 20-20H795" stroke="#000" stroke-width="5" fill="none"/><path d="M877.5 319.97l.1 2.53h-2.67v-5h2.72zM797.5 202.54h-2.56v-5h2.56z"/><path d="M235 200H82.5" stroke="#000" stroke-width="5" fill="none"/><path d="M237.5 199.97l.1 2.53h-2.67v-5h2.72z"/><path d="M82.56 200H80" stroke="#000" stroke-width="5" fill="none"/><path d="M720 200c0 22.1-17.9 40-40 40s-40-17.9-40-40 17.9-40 40-40 40 17.9 40 40z" stroke="#000" stroke-width="5" fill="#fff"/><use xlink:href="#a" transform="matrix(1,0,0,1,645,165) translate(28.39388888888889 42.9375)"/><path d="M1600 200.04c0 22.1-17.9 40-40 40s-40-17.9-40-40 17.9-40 40-40 40 17.9 40 40z" stroke="#000" stroke-width="5" fill="#fff"/><use xlink:href="#b" transform="matrix(1,0,0,1,1525,165.0404219989424) translate(28.39388888888889 42.9375)"/><path d="M725 200h35v.04h35" stroke="#000" stroke-width="5" fill="none"/><path d="M725.07 202.5h-2.72l.15-2.47-.1-2.53h2.67zM797.5 202.54h-2.56v-5h2.56z"/><path d="M1605 200.04h71.5" stroke="#000" stroke-width="5" fill="none"/><path d="M1605.07 202.54h-2.72l.15-2.47-.1-2.53h2.67zM1679 202.54h-2.57v-5h2.57z"/><path d="M360 160.04h240v80H360z" stroke="#000" stroke-width="5" fill="#fff"/><use xlink:href="#e" transform="matrix(1,0,0,1,365,165.0404219989424) translate(7.3888888888888715 42.9375)"/><path d="M325 200h30" stroke="#000" stroke-width="5" fill="none"/><path d="M325.07 202.5h-2.72l.15-2.47-.1-2.53h2.67zM357.5 202.5h-2.56v-5h2.56z"/><path d="M605 200.04h30" stroke="#000" stroke-width="5" fill="none"/><path d="M605.06 202.54h-2.56v-5h2.56zM637.5 199.97l.1 2.57h-2.66v-5h2.7z"/><path d="M1239.37 160h240v80h-240z" stroke="#000" stroke-width="5" fill="#fff"/><use xlink:href="#e" transform="matrix(1,0,0,1,1244.3746101751947,165) translate(7.3888888888888715 42.9375)"/><path d="M1203.75 200.04h15.3V200h15.32" stroke="#000" stroke-width="5" fill="none"/><path d="M1203.8 202.54h-2.7l.15-2.47-.1-2.53h2.66zM1236.87 202.5h-2.56v-5h2.57z"/><path d="M1484.37 200H1515" stroke="#000" stroke-width="5" fill="none"/><path d="M1484.44 202.5h-2.57v-5h2.57zM1517.5 200l.1 2.5h-2.67v-5h2.72z"/><path d="M120.18 140H240v60H120.18z" fill="none"/><use xlink:href="#f" transform="matrix(1,0,0,1,120.17862017920311,140) translate(24.555555555555557 38)"/><path d="M80 226.57V173l40.18 26.8zM1680 226.83v-53.58l40.18 26.8z" stroke="#000" stroke-width="2"/><defs><path d="M20 75v-336h95v34H67V41h48v34H20" id="g"/><use transform="matrix(0.1111111111111111,0,0,0.1111111111111111,0,0)" xlink:href="#g" id="a"/><path d="M4 75V41h49v-268H4v-34h96V75H4" id="h"/><use transform="matrix(0.1111111111111111,0,0,0.1111111111111111,0,0)" xlink:href="#h" id="b"/><path d="M185-48c-13 30-37 53-82 52C43 2 14-33 14-96s30-98 90-98c62 0 83 45 84 108H66c0 31 8 55 39 56 18 0 30-7 34-22zm-45-69c5-46-57-63-70-21-2 6-4 13-4 21h74" id="i"/><path d="M25 0v-261h50V0H25" id="j"/><path d="M220-157c-53 9-28 100-34 157h-49v-107c1-27-5-49-29-50C55-147 81-57 75 0H25l-1-190h47c2 12-1 28 3 38 10-53 101-56 108 0 13-22 24-43 59-42 82 1 51 116 57 194h-49v-107c-1-25-5-48-29-50" id="k"/><path d="M135-194c87-1 58 113 63 194h-50c-7-57 23-157-34-157-59 0-34 97-39 157H25l-1-190h47c2 12-1 28 3 38 12-26 28-41 61-42" id="l"/><path d="M115-3C79 11 28 4 28-45v-112H4v-33h27l15-45h31v45h36v33H77v99c-1 23 16 31 38 25v30" id="m"/><g id="c"><use transform="matrix(0.1111111111111111,0,0,0.1111111111111111,0,0)" xlink:href="#i"/><use transform="matrix(0.1111111111111111,0,0,0.1111111111111111,22.22222222222222,0)" xlink:href="#j"/><use transform="matrix(0.1111111111111111,0,0,0.1111111111111111,33.33333333333333,0)" xlink:href="#i"/><use transform="matrix(0.1111111111111111,0,0,0.1111111111111111,55.55555555555555,0)" xlink:href="#k"/><use transform="matrix(0.1111111111111111,0,0,0.1111111111111111,91.11111111111111,0)" xlink:href="#i"/><use transform="matrix(0.1111111111111111,0,0,0.1111111111111111,113.33333333333334,0)" xlink:href="#l"/><use transform="matrix(0.1111111111111111,0,0,0.1111111111111111,137.66666666666669,0)" xlink:href="#m"/></g><path d="M76-54c-1 42 2 86-19 110H24C36 42 46 24 48 0H25v-54h51" id="n"/><use transform="matrix(0.1111111111111111,0,0,0.1111111111111111,0,0)" xlink:href="#n" id="d"/><path d="M231 0h-52l-39-155L100 0H48L-1-190h46L77-45c9-52 24-97 36-145h53l37 145 32-145h46" id="o"/><path d="M114-157C55-157 80-60 75 0H25v-261h50l-1 109c12-26 28-41 61-42 86-1 58 113 63 194h-50c-7-57 23-157-34-157" id="p"/><path d="M25-224v-37h50v37H25zM25 0v-190h50V0H25" id="q"/><path d="M137-138c1-29-70-34-71-4 15 46 118 7 119 86 1 83-164 76-172 9l43-7c4 19 20 25 44 25 33 8 57-30 24-41C81-84 22-81 20-136c-2-80 154-74 161-7" id="r"/><path d="M135-194c53 0 70 44 70 98 0 56-19 98-73 100-31 1-45-17-59-34 3 33 2 69 2 105H25l-1-265h48c2 10 0 23 3 31 11-24 29-35 60-35zM114-30c33 0 39-31 40-66 0-38-9-64-40-64-56 0-55 130 0 130" id="s"/><path d="M133-34C117-15 103 5 69 4 32 3 11-16 11-54c-1-60 55-63 116-61 1-26-3-47-28-47-18 1-26 9-28 27l-52-2c7-38 36-58 82-57s74 22 75 68l1 82c-1 14 12 18 25 15v27c-30 8-71 5-69-32zm-48 3c29 0 43-24 42-57-32 0-66-3-65 30 0 17 8 27 23 27" id="t"/><path d="M190-63c-7 42-38 67-86 67-59 0-84-38-90-98-12-110 154-137 174-36l-49 2c-2-19-15-32-35-32-30 0-35 28-38 64-6 74 65 87 74 30" id="u"/><g id="e"><use transform="matrix(0.1111111111111111,0,0,0.1111111111111111,0,0)" xlink:href="#o"/><use transform="matrix(0.1111111111111111,0,0,0.1111111111111111,31.11111111111111,0)" xlink:href="#p"/><use transform="matrix(0.1111111111111111,0,0,0.1111111111111111,55.44444444444444,0)" xlink:href="#q"/><use transform="matrix(0.1111111111111111,0,0,0.1111111111111111,66.55555555555556,0)" xlink:href="#m"/><use transform="matrix(0.1111111111111111,0,0,0.1111111111111111,79.77777777777777,0)" xlink:href="#i"/><use transform="matrix(0.1111111111111111,0,0,0.1111111111111111,102,0)" xlink:href="#r"/><use transform="matrix(0.1111111111111111,0,0,0.1111111111111111,124.22222222222224,0)" xlink:href="#s"/><use transform="matrix(0.1111111111111111,0,0,0.1111111111111111,148.55555555555557,0)" xlink:href="#t"/><use transform="matrix(0.1111111111111111,0,0,0.1111111111111111,170.7777777777778,0)" xlink:href="#u"/><use transform="matrix(0.1111111111111111,0,0,0.1111111111111111,193.00000000000003,0)" xlink:href="#i"/></g><path d="M88-194c31-1 46 15 58 34l-1-101h50l1 261h-48c-2-10 0-23-3-31C134-8 116 4 84 4 32 4 16-41 15-95c0-56 19-97 73-99zm17 164c33 0 40-30 41-66 1-37-9-64-41-64s-38 30-39 65c0 43 13 65 39 65" id="v"/><g id="f"><use transform="matrix(0.1111111111111111,0,0,0.1111111111111111,0,0)" xlink:href="#t"/><use transform="matrix(0.1111111111111111,0,0,0.1111111111111111,22.22222222222222,0)" xlink:href="#l"/><use transform="matrix(0.1111111111111111,0,0,0.1111111111111111,46.55555555555556,0)" xlink:href="#v"/></g></defs></g></svg>