<svg xmlns="http://www.w3.org/2000/svg" xmlns:xlink="http://www.w3.org/1999/xlink" xmlns:lucid="lucid" width="1398.43" height="422.05"><g transform="translate(0 0)" lucid:page-tab-id="2ywKv78B8.0_"><path d="M640 140.12h240v80H640z" stroke="#000" stroke-width="5" fill="#fff"/><use xlink:href="#a" transform="matrix(1,0,0,1,645,145.1212659968271) translate(59.611111111111114 42.9375)"/><path d="M885 180.12h68.75" stroke="#000" stroke-width="5" fill="none"/><path d="M885.06 182.62h-2.56v-5h2.56zM956.25 182.62h-2.56v-5h2.55z"/><path d="M565 180.08h35v.04h35" stroke="#000" stroke-width="5" fill="none"/><path d="M565.06 182.58h-2.56v-5h2.56zM637.5 182.62h-2.56v-5h2.56z"/><path d="M320 140h240v80H320z" stroke="#000" stroke-width="5" fill="#fff"/><use xlink:href="#b" transform="matrix(1,0,0,1,324.99999999999994,145) translate(7.3888888888888715 42.9375)"/><path d="M82.5 179.96H315M82.56 179.96H80" stroke="#000" stroke-width="5" fill="none"/><path d="M317.5 182.46h-2.57v-5h2.57z"/><path d="M958.75 140.12h240v80h-240z" stroke="#000" stroke-width="5" fill="#fff"/><use xlink:href="#b" transform="matrix(1,0,0,1,963.7492203503894,145.1212659968271) translate(7.3888888888888715 42.9375)"/><path d="M1203.75 180.12h72.75" stroke="#000" stroke-width="5" fill="none"/><path d="M1203.8 182.62h-2.55v-5h2.56zM1279 182.62h-2.57v-5h2.57z"/><path d="M639.82 260.06h240v80h-240z" stroke="#000" stroke-width="5" fill="#fff"/><use xlink:href="#c" transform="matrix(1,0,0,1,644.8213798207969,265.06063299841367) translate(9.6111111111111 42.9375)"/><path d="M565 180h14.9c11.06 0 20 8.95 20 20v80.06c0 11.05 8.96 20 20 20h14.92" stroke="#000" stroke-width="5" fill="none"/><path d="M565.06 182.5h-2.56v-5h2.56zM637.32 302.56h-2.56v-5h2.56z"/><path d="M884.82 300.06h14.47c11.03 0 20-8.95 20-20v-79.94c0-11.04 8.94-20 20-20h14.45" stroke="#000" stroke-width="5" fill="none"/><path d="M884.9 302.56h-2.58v-5h2.57zM956.25 182.62h-2.56v-5h2.55z"/><path d="M119.82 120h200v60h-200z" fill="none"/><use xlink:href="#d" transform="matrix(1,0,0,1,119.82137982079689,120) translate(24.555555555555543 38)"/><path d="M80 206.57V153l40.18 26.8zM1280 206.9v-53.56l40.18 26.78z" stroke="#000" stroke-width="2"/><defs><path d="M137-138c1-29-70-34-71-4 15 46 118 7 119 86 1 83-164 76-172 9l43-7c4 19 20 25 44 25 33 8 57-30 24-41C81-84 22-81 20-136c-2-80 154-74 161-7" id="e"/><path d="M115-3C79 11 28 4 28-45v-112H4v-33h27l15-45h31v45h36v33H77v99c-1 23 16 31 38 25v30" id="f"/><path d="M135-150c-39-12-60 13-60 57V0H25l-1-190h47c2 13-1 29 3 40 6-28 27-53 61-41v41" id="g"/><path d="M25-224v-37h50v37H25zM25 0v-190h50V0H25" id="h"/><path d="M135-194c87-1 58 113 63 194h-50c-7-57 23-157-34-157-59 0-34 97-39 157H25l-1-190h47c2 12-1 28 3 38 12-26 28-41 61-42" id="i"/><path d="M195-6C206 82 75 100 31 46c-4-6-6-13-8-21l49-6c3 16 16 24 34 25 40 0 42-37 40-79-11 22-30 35-61 35-53 0-70-43-70-97 0-56 18-96 73-97 30 0 46 14 59 34l2-30h47zm-90-29c32 0 41-27 41-63 0-35-9-62-40-62-32 0-39 29-40 63 0 36 9 62 39 62" id="j"/><g id="a"><use transform="matrix(0.1111111111111111,0,0,0.1111111111111111,0,0)" xlink:href="#e"/><use transform="matrix(0.1111111111111111,0,0,0.1111111111111111,22.22222222222222,0)" xlink:href="#f"/><use transform="matrix(0.1111111111111111,0,0,0.1111111111111111,35.44444444444444,0)" xlink:href="#g"/><use transform="matrix(0.1111111111111111,0,0,0.1111111111111111,51,0)" xlink:href="#h"/><use transform="matrix(0.1111111111111111,0,0,0.1111111111111111,62.11111111111112,0)" xlink:href="#i"/><use transform="matrix(0.1111111111111111,0,0,0.1111111111111111,86.44444444444444,0)" xlink:href="#j"/></g><path d="M231 0h-52l-39-155L100 0H48L-1-190h46L77-45c9-52 24-97 36-145h53l37 145 32-145h46" id="k"/><path d="M114-157C55-157 80-60 75 0H25v-261h50l-1 109c12-26 28-41 61-42 86-1 58 113 63 194h-50c-7-57 23-157-34-157" id="l"/><path d="M185-48c-13 30-37 53-82 52C43 2 14-33 14-96s30-98 90-98c62 0 83 45 84 108H66c0 31 8 55 39 56 18 0 30-7 34-22zm-45-69c5-46-57-63-70-21-2 6-4 13-4 21h74" id="m"/><path d="M135-194c53 0 70 44 70 98 0 56-19 98-73 100-31 1-45-17-59-34 3 33 2 69 2 105H25l-1-265h48c2 10 0 23 3 31 11-24 29-35 60-35zM114-30c33 0 39-31 40-66 0-38-9-64-40-64-56 0-55 130 0 130" id="n"/><path d="M133-34C117-15 103 5 69 4 32 3 11-16 11-54c-1-60 55-63 116-61 1-26-3-47-28-47-18 1-26 9-28 27l-52-2c7-38 36-58 82-57s74 22 75 68l1 82c-1 14 12 18 25 15v27c-30 8-71 5-69-32zm-48 3c29 0 43-24 42-57-32 0-66-3-65 30 0 17 8 27 23 27" id="o"/><path d="M190-63c-7 42-38 67-86 67-59 0-84-38-90-98-12-110 154-137 174-36l-49 2c-2-19-15-32-35-32-30 0-35 28-38 64-6 74 65 87 74 30" id="p"/><g id="b"><use transform="matrix(0.1111111111111111,0,0,0.1111111111111111,0,0)" xlink:href="#k"/><use transform="matrix(0.1111111111111111,0,0,0.1111111111111111,31.11111111111111,0)" xlink:href="#l"/><use transform="matrix(0.1111111111111111,0,0,0.1111111111111111,55.44444444444444,0)" xlink:href="#h"/><use transform="matrix(0.1111111111111111,0,0,0.1111111111111111,66.55555555555556,0)" xlink:href="#f"/><use transform="matrix(0.1111111111111111,0,0,0.1111111111111111,79.77777777777777,0)" xlink:href="#m"/><use transform="matrix(0.1111111111111111,0,0,0.1111111111111111,102,0)" xlink:href="#e"/><use transform="matrix(0.1111111111111111,0,0,0.1111111111111111,124.22222222222224,0)" xlink:href="#n"/><use transform="matrix(0.1111111111111111,0,0,0.1111111111111111,148.55555555555557,0)" xlink:href="#o"/><use transform="matrix(0.1111111111111111,0,0,0.1111111111111111,170.7777777777778,0)" xlink:href="#p"/><use transform="matrix(0.1111111111111111,0,0,0.1111111111111111,193.00000000000003,0)" xlink:href="#m"/></g><path d="M144 0l-44-69L55 0H2l70-98-66-92h53l41 62 40-62h54l-67 91 71 99h-54" id="q"/><path d="M110-194c64 0 96 36 96 99 0 64-35 99-97 99-61 0-95-36-95-99 0-62 34-99 96-99zm-1 164c35 0 45-28 45-65 0-40-10-65-43-65-34 0-45 26-45 65 0 36 10 65 43 65" id="r"/><g id="c"><use transform="matrix(0.1111111111111111,0,0,0.1111111111111111,0,0)" xlink:href="#m"/><use transform="matrix(0.1111111111111111,0,0,0.1111111111111111,22.22222222222222,0)" xlink:href="#q"/><use transform="matrix(0.1111111111111111,0,0,0.1111111111111111,44.44444444444444,0)" xlink:href="#n"/><use transform="matrix(0.1111111111111111,0,0,0.1111111111111111,68.77777777777777,0)" xlink:href="#g"/><use transform="matrix(0.1111111111111111,0,0,0.1111111111111111,84.33333333333333,0)" xlink:href="#m"/><use transform="matrix(0.1111111111111111,0,0,0.1111111111111111,106.55555555555554,0)" xlink:href="#e"/><use transform="matrix(0.1111111111111111,0,0,0.1111111111111111,128.77777777777777,0)" xlink:href="#e"/><use transform="matrix(0.1111111111111111,0,0,0.1111111111111111,151,0)" xlink:href="#h"/><use transform="matrix(0.1111111111111111,0,0,0.1111111111111111,162.11111111111111,0)" xlink:href="#r"/><use transform="matrix(0.1111111111111111,0,0,0.1111111111111111,186.44444444444446,0)" xlink:href="#i"/></g><path d="M25 0v-261h50V0H25" id="s"/><path d="M220-157c-53 9-28 100-34 157h-49v-107c1-27-5-49-29-50C55-147 81-57 75 0H25l-1-190h47c2 12-1 28 3 38 10-53 101-56 108 0 13-22 24-43 59-42 82 1 51 116 57 194h-49v-107c-1-25-5-48-29-50" id="t"/><g id="d"><use transform="matrix(0.1111111111111111,0,0,0.1111111111111111,0,0)" xlink:href="#m"/><use transform="matrix(0.1111111111111111,0,0,0.1111111111111111,22.22222222222222,0)" xlink:href="#s"/><use transform="matrix(0.1111111111111111,0,0,0.1111111111111111,33.33333333333333,0)" xlink:href="#m"/><use transform="matrix(0.1111111111111111,0,0,0.1111111111111111,55.55555555555555,0)" xlink:href="#t"/><use transform="matrix(0.1111111111111111,0,0,0.1111111111111111,91.11111111111111,0)" xlink:href="#m"/><use transform="matrix(0.1111111111111111,0,0,0.1111111111111111,113.33333333333334,0)" xlink:href="#i"/><use transform="matrix(0.1111111111111111,0,0,0.1111111111111111,137.66666666666669,0)" xlink:href="#f"/></g></defs></g></svg>