<svg xmlns="http://www.w3.org/2000/svg" xmlns:xlink="http://www.w3.org/1999/xlink" xmlns:lucid="lucid" width="1001.57" height="359.06"><g transform="translate(0 0)" lucid:page-tab-id="zywKe4vSs6S3"><path d="M120 60h119.82v60H120z" fill="none"/><use xlink:href="#a" transform="matrix(1,0,0,1,120,60) translate(40.05555555555556 38)"/><path d="M319.82 120c0 22.1-17.9 40-40 40s-40-17.9-40-40 17.9-40 40-40 40 17.9 40 40z" stroke="#000" stroke-width="5" fill="#fff"/><use xlink:href="#b" transform="matrix(1,0,0,1,244.8213798207969,85) translate(28.39388888888889 42.9375)"/><path d="M794.82 120.04c0 22.1-17.9 40-40 40s-40-17.9-40-40 17.9-40 40-40 40 17.9 40 40z" stroke="#000" stroke-width="5" fill="#fff"/><use xlink:href="#c" transform="matrix(1,0,0,1,719.8198205215759,85.04042199894246) translate(28.39388888888889 42.9375)"/><path d="M399.82 80h240v80h-240z" stroke="#000" stroke-width="5" fill="#fff"/><use xlink:href="#d" transform="matrix(1,0,0,1,404.8213798207969,85) translate(39.55555555555554 42.9375)"/><path d="M324.82 120h70" stroke="#000" stroke-width="5" fill="none"/><path d="M324.9 122.5h-2.73l.15-2.47-.1-2.53h2.67zM397.32 122.5h-2.56v-5h2.56z"/><path d="M644.82 120h32.5v.04h32.5" stroke="#000" stroke-width="5" fill="none"/><path d="M644.9 122.5h-2.58v-5h2.57zM712.32 120l.1 2.54h-2.67v-5h2.72z"/><path d="M559.82 240c0 22.1-17.9 40-40 40s-40-17.9-40-40 17.9-40 40-40 40 17.9 40 40z" stroke="#000" stroke-width="5" fill="#fff"/><use xlink:href="#e" transform="matrix(1,0,0,1,484.8213798207969,205) translate(29.449444444444445 42.9375)"/><path d="M644.82 120h12.5c11.05 0 20 8.95 20 20v80c0 11.05-8.95 20-20 20h-92.5" stroke="#000" stroke-width="5" fill="none"/><path d="M644.9 122.5h-2.58v-5h2.57zM564.9 242.5h-2.73l.15-2.47-.1-2.53h2.67z"/><path d="M474.82 240h-96.25c-11.04 0-20-8.95-20-20v-80c0-11.05 8.96-20 20-20h16.25" stroke="#000" stroke-width="5" fill="none"/><path d="M477.32 239.97l.1 2.53h-2.66v-5h2.7zM397.32 122.5h-2.56v-5h2.56z"/><path d="M82.5 120h152.32M82.56 120H80" stroke="#000" stroke-width="5" fill="none"/><path d="M237.32 119.97l.1 2.53h-2.66v-5h2.7z"/><path d="M799.82 120.04h38.34V120h38.34" stroke="#000" stroke-width="5" fill="none"/><path d="M799.9 122.54h-2.73l.15-2.47-.1-2.53h2.67zM879 122.5h-2.56v-5H879z"/><path d="M880 146.83V93.25l40.18 26.8zM80 146.57V93l40.18 26.8z" stroke="#000" stroke-width="2"/><defs><path d="M110-194c64 0 96 36 96 99 0 64-35 99-97 99-61 0-95-36-95-99 0-62 34-99 96-99zm-1 164c35 0 45-28 45-65 0-40-10-65-43-65-34 0-45 26-45 65 0 36 10 65 43 65" id="f"/><path d="M135-150c-39-12-60 13-60 57V0H25l-1-190h47c2 13-1 29 3 40 6-28 27-53 61-41v41" id="g"/><g id="a"><use transform="matrix(0.1111111111111111,0,0,0.1111111111111111,0,0)" xlink:href="#f"/><use transform="matrix(0.1111111111111111,0,0,0.1111111111111111,24.333333333333332,0)" xlink:href="#g"/></g><path d="M20 75v-336h95v34H67V41h48v34H20" id="h"/><use transform="matrix(0.1111111111111111,0,0,0.1111111111111111,0,0)" xlink:href="#h" id="b"/><path d="M4 75V41h49v-268H4v-34h96V75H4" id="i"/><use transform="matrix(0.1111111111111111,0,0,0.1111111111111111,0,0)" xlink:href="#i" id="c"/><path d="M185-48c-13 30-37 53-82 52C43 2 14-33 14-96s30-98 90-98c62 0 83 45 84 108H66c0 31 8 55 39 56 18 0 30-7 34-22zm-45-69c5-46-57-63-70-21-2 6-4 13-4 21h74" id="j"/><path d="M25 0v-261h50V0H25" id="k"/><path d="M220-157c-53 9-28 100-34 157h-49v-107c1-27-5-49-29-50C55-147 81-57 75 0H25l-1-190h47c2 12-1 28 3 38 10-53 101-56 108 0 13-22 24-43 59-42 82 1 51 116 57 194h-49v-107c-1-25-5-48-29-50" id="l"/><path d="M135-194c87-1 58 113 63 194h-50c-7-57 23-157-34-157-59 0-34 97-39 157H25l-1-190h47c2 12-1 28 3 38 12-26 28-41 61-42" id="m"/><path d="M115-3C79 11 28 4 28-45v-112H4v-33h27l15-45h31v45h36v33H77v99c-1 23 16 31 38 25v30" id="n"/><g id="d"><use transform="matrix(0.1111111111111111,0,0,0.1111111111111111,0,0)" xlink:href="#j"/><use transform="matrix(0.1111111111111111,0,0,0.1111111111111111,22.22222222222222,0)" xlink:href="#k"/><use transform="matrix(0.1111111111111111,0,0,0.1111111111111111,33.33333333333333,0)" xlink:href="#j"/><use transform="matrix(0.1111111111111111,0,0,0.1111111111111111,55.55555555555555,0)" xlink:href="#l"/><use transform="matrix(0.1111111111111111,0,0,0.1111111111111111,91.11111111111111,0)" xlink:href="#j"/><use transform="matrix(0.1111111111111111,0,0,0.1111111111111111,113.33333333333334,0)" xlink:href="#m"/><use transform="matrix(0.1111111111111111,0,0,0.1111111111111111,137.66666666666669,0)" xlink:href="#n"/></g><path d="M76-54c-1 42 2 86-19 110H24C36 42 46 24 48 0H25v-54h51" id="o"/><use transform="matrix(0.1111111111111111,0,0,0.1111111111111111,0,0)" xlink:href="#o" id="e"/></defs></g></svg>