<svg xmlns="http://www.w3.org/2000/svg" xmlns:xlink="http://www.w3.org/1999/xlink" xmlns:lucid="lucid" width="1406.18" height="1526"><g transform="translate(-54 -40)" lucid:page-tab-id="dzwK_g~.JpXA"><path d="M358.26 120c0 22.1-17.9 40-40 40s-40-17.9-40-40 17.9-40 40-40 40 17.9 40 40z" stroke="#000" stroke-width="5" fill="#fff"/><use xlink:href="#a" transform="matrix(1,0,0,1,283.25734895944447,85.00000000000023) translate(25.560555555555553 42.9375)"/><path d="M1319.37 119.8c0 22.08-17.9 40-40 40s-40-17.92-40-40c0-22.1 17.9-40 40-40s40 17.9 40 40z" stroke="#000" stroke-width="5" fill="#fff"/><use xlink:href="#a" transform="matrix(1,0,0,1,1244.3746101751947,84.78574678613586) translate(25.560555555555553 42.9375)"/><path d="M518.08 160h555v120h-555z" stroke="#000" stroke-width="5" fill="#fff"/><use xlink:href="#b" transform="matrix(1,0,0,1,523.0787287802414,165) translate(91.21604938271602 42.19444444444444)"/><use xlink:href="#c" transform="matrix(1,0,0,1,523.0787287802414,165) translate(162.22839506172838 42.19444444444444)"/><use xlink:href="#d" transform="matrix(1,0,0,1,523.0787287802414,165) translate(341.3888888888889 42.19444444444444)"/><use xlink:href="#e" transform="matrix(1,0,0,1,523.0787287802414,165) translate(16.648148148148096 84.86111111111111)"/><use xlink:href="#f" transform="matrix(1,0,0,1,523.0787287802414,165) translate(43.31481481481477 84.86111111111111)"/><use xlink:href="#g" transform="matrix(1,0,0,1,523.0787287802414,165) translate(88.6481481481481 84.86111111111111)"/><use xlink:href="#f" transform="matrix(1,0,0,1,523.0787287802414,165) translate(108.40123456790118 84.86111111111111)"/><use xlink:href="#h" transform="matrix(1,0,0,1,523.0787287802414,165) translate(153.73456790123453 84.86111111111111)"/><use xlink:href="#f" transform="matrix(1,0,0,1,523.0787287802414,165) translate(173.48765432098762 84.86111111111111)"/><use xlink:href="#i" transform="matrix(1,0,0,1,523.0787287802414,165) translate(218.82098765432096 84.86111111111111)"/><use xlink:href="#j" transform="matrix(1,0,0,1,523.0787287802414,165) translate(348.7962962962963 84.86111111111111)"/><path d="M363.26 120h14.82c11.04 0 20 8.95 20 20v60c0 11.05 8.95 20 20 20h95" stroke="#000" stroke-width="5" fill="none"/><path d="M363.32 122.5h-2.7l.14-2.47-.1-2.53h2.66zM515.58 222.5H513v-5h2.58z"/><path d="M598.08 360c0 22.1-17.9 40-40 40s-40-17.9-40-40 17.9-40 40-40 40 17.9 40 40z" stroke="#000" stroke-width="5" fill="#fff"/><use xlink:href="#k" transform="matrix(1,0,0,1,523.0787287802414,325) translate(29.449444444444445 42.9375)"/><path d="M513.08 360h-15c-11.05 0-20-8.95-20-20V240c0-11.05-8.96-20-20-20h-40c-11.05 0-20-8.95-20-20v-60c0-11.05-8.96-20-20-20h-14.82" stroke="#000" stroke-width="5" fill="none"/><path d="M515.58 359.97l.1 2.53H513v-5h2.73zM363.32 122.5h-2.7l.14-2.47-.1-2.53h2.66z"/><path d="M796.65 480c0 22.1-17.9 40-40 40s-40-17.9-40-40 17.9-40 40-40 40 17.9 40 40z" stroke="#000" stroke-width="5" fill="#fff"/><use xlink:href="#k" transform="matrix(1,0,0,1,721.6493289514276,445) translate(29.449444444444445 42.9375)"/><path d="M795.4 600c0 22.1-17.9 40-40 40s-40-17.9-40-40 17.9-40 40-40 40 17.9 40 40z" stroke="#000" stroke-width="5" fill="#fff"/><use xlink:href="#l" transform="matrix(1,0,0,1,720.398549301817,565) translate(29.449444444444445 42.9375)"/><path d="M795.4 720c0 22.1-17.9 40-40 40s-40-17.9-40-40 17.9-40 40-40 40 17.9 40 40z" stroke="#000" stroke-width="5" fill="#fff"/><use xlink:href="#m" transform="matrix(1,0,0,1,720.398549301817,685) translate(22.83833333333333 42.9375)"/><path d="M710.4 720h-12.32c-11.05 0-20-8.95-20-20V562.5" stroke="#000" stroke-width="5" fill="none"/><path d="M712.9 719.97l.1 2.53h-2.67v-5h2.72z"/><path d="M678.08 562.56V560M710.4 600h-12.32c-11.05 0-20-8.95-20-20V442.5" stroke="#000" stroke-width="5" fill="none"/><path d="M712.9 599.97l.1 2.53h-2.67v-5h2.72z"/><path d="M678.08 442.56V440M711.65 480h-13.57c-11.05 0-20-8.95-20-20v-80c0-11.05-8.96-20-20-20h-55" stroke="#000" stroke-width="5" fill="none"/><path d="M714.15 479.97l.1 2.53h-2.67v-5h2.72zM603.14 362.5h-2.7l.14-2.47-.1-2.53h2.66z"/><path d="M800.4 720h297.68c11.04 0 20-8.95 20-20V542.44" stroke="#000" stroke-width="5" fill="none"/><path d="M800.46 722.5h-2.7l.14-2.47-.1-2.53h2.66z"/><path d="M1118.08 542.5v-2.56M800.4 600h297.68c11.04 0 20-8.95 20-20V422.38" stroke="#000" stroke-width="5" fill="none"/><path d="M800.46 602.5h-2.7l.14-2.47-.1-2.53h2.66z"/><path d="M1118.08 422.44v-2.56" stroke="#000" stroke-width="5" fill="none"/><path d="M798.08 360c0 22.1-17.9 40-40 40s-40-17.9-40-40 17.9-40 40-40 40 17.9 40 40z" stroke="#000" stroke-width="5" fill="#fff"/><use xlink:href="#a" transform="matrix(1,0,0,1,723.0787287802414,325) translate(25.560555555555553 42.9375)"/><path d="M713.08 360h-110" stroke="#000" stroke-width="5" fill="none"/><path d="M715.58 359.97l.1 2.53H713v-5h2.73zM603.14 362.5h-2.7l.14-2.47-.1-2.53h2.66z"/><path d="M803.08 360h295c11.04 0 20-8.95 20-20V240c0-11.05 8.95-20 20-20h40c11.04 0 20-8.95 20-20v-60.2c0-11.06 8.95-20 20-20h16.3" stroke="#000" stroke-width="5" fill="none"/><path d="M803.14 362.5h-2.7l.14-2.47-.1-2.53h2.66zM1236.87 119.75l.1 2.54h-2.66v-5h2.73z"/><path d="M1078.08 220h100c11.04 0 20-8.95 20-20v-60.2c0-11.06 8.95-20 20-20h16.3" stroke="#000" stroke-width="5" fill="none"/><path d="M1078.14 222.5h-2.56v-5h2.56zM1236.87 119.75l.1 2.54h-2.66v-5h2.73z"/><path d="M801.65 480h296.43c11.04 0 20-8.95 20-20V281.1" stroke="#000" stroke-width="5" fill="none"/><path d="M801.7 482.5H799l.15-2.47-.1-2.53h2.66z"/><path d="M1118.08 281.15v-2.56M363.26 120H798.7c.07 0 .12-.05.12-.1 0-.07.04-.1.1-.1h435.45" stroke="#000" stroke-width="5" fill="none"/><path d="M363.32 122.5h-2.7l.14-2.47-.1-2.53h2.66zM1236.87 119.75l.1 2.54h-2.66v-5h2.73z"/><path d="M795.4 840.12c0 22.1-17.9 40-40 40s-40-17.9-40-40 17.9-40 40-40 40 17.9 40 40z" stroke="#000" stroke-width="5" fill="#fff"/><use xlink:href="#n" transform="matrix(1,0,0,1,720.398549301817,805.1212659968278) translate(28.39388888888889 42.9375)"/><path d="M795.4 960.12c0 22.1-17.9 40-40 40s-40-17.9-40-40 17.9-40 40-40 40 17.9 40 40z" stroke="#000" stroke-width="5" fill="#fff"/><use xlink:href="#o" transform="matrix(1,0,0,1,720.398549301817,925.1212659968278) translate(22.83833333333333 42.9375)"/><path d="M710.4 960.12h-12.32c-11.05 0-20-8.95-20-20v-137.5" stroke="#000" stroke-width="5" fill="none"/><path d="M712.9 960.1l.1 2.52h-2.67v-5h2.72z"/><path d="M678.08 802.7v-2.58M710.4 840.12h-12.32c-11.05 0-20-8.95-20-20v-137.5" stroke="#000" stroke-width="5" fill="none"/><path d="M712.9 840.1l.1 2.52h-2.67v-5h2.72z"/><path d="M678.08 682.7v-2.58M800.4 960.12h297.68c11.04 0 20-8.95 20-20V782.56" stroke="#000" stroke-width="5" fill="none"/><path d="M800.46 962.62h-2.7l.14-2.46-.1-2.54h2.66z"/><path d="M1118.08 782.62v-2.56M800.4 840.12h297.68c11.04 0 20-8.95 20-20V662.5" stroke="#000" stroke-width="5" fill="none"/><path d="M800.46 842.62h-2.7l.14-2.46-.1-2.54h2.66z"/><path d="M1118.08 662.56V660" stroke="#000" stroke-width="5" fill="none"/><path d="M795.4 1080.12c0 22.1-17.9 40-40 40s-40-17.9-40-40 17.9-40 40-40 40 17.9 40 40z" stroke="#000" stroke-width="5" fill="#fff"/><use xlink:href="#p" transform="matrix(1,0,0,1,720.398549301817,1045.1212659968278) translate(27.227222222222224 42.9375)"/><path d="M795.4 1200.12c0 22.1-17.9 40-40 40s-40-17.9-40-40 17.9-40 40-40 40 17.9 40 40z" stroke="#000" stroke-width="5" fill="#fff"/><use xlink:href="#q" transform="matrix(1,0,0,1,720.398549301817,1165.1212659968278) translate(28.39388888888889 42.9375)"/><path d="M710.4 1200.12h-12.32c-11.05 0-20-8.95-20-20v-137.5" stroke="#000" stroke-width="5" fill="none"/><path d="M712.9 1200.1l.1 2.52h-2.67v-5h2.72z"/><path d="M678.08 1042.7v-2.58M710.4 1080.12h-12.32c-11.05 0-20-8.95-20-20v-137.5" stroke="#000" stroke-width="5" fill="none"/><path d="M712.9 1080.1l.1 2.52h-2.67v-5h2.72z"/><path d="M678.08 922.7v-2.58M800.4 1200.12h297.68c11.04 0 20-8.95 20-20v-157.56" stroke="#000" stroke-width="5" fill="none"/><path d="M800.46 1202.62h-2.7l.14-2.46-.1-2.54h2.66z"/><path d="M1118.08 1022.62v-2.56M800.4 1080.12h297.68c11.04 0 20-8.95 20-20V902.5" stroke="#000" stroke-width="5" fill="none"/><path d="M800.46 1082.62h-2.7l.14-2.46-.1-2.54h2.66z"/><path d="M1118.08 902.56V900" stroke="#000" stroke-width="5" fill="none"/><path d="M795.4 1320.12c0 22.1-17.9 40-40 40s-40-17.9-40-40 17.9-40 40-40 40 17.9 40 40z" stroke="#000" stroke-width="5" fill="#fff"/><use xlink:href="#r" transform="matrix(1,0,0,1,720.398549301817,1285.1212659968278) translate(29.449444444444445 42.9375)"/><path d="M710.4 1320.12h-12.32c-11.05 0-20-8.95-20-20v-137.5" stroke="#000" stroke-width="5" fill="none"/><path d="M712.9 1320.1l.1 2.52h-2.67v-5h2.72z"/><path d="M678.08 1162.7v-2.58M800.4 1320.12h297.68c11.04 0 20-8.95 20-20V1142.5" stroke="#000" stroke-width="5" fill="none"/><path d="M800.46 1322.62h-2.7l.14-2.46-.1-2.54h2.66z"/><path d="M1118.08 1142.56V1140" stroke="#000" stroke-width="5" fill="none"/><path d="M797.9 420h300v60h-300z" fill="none"/><use xlink:href="#s" transform="matrix(1,0,0,1,797.9001086010383,420) translate(0 38)"/><use xlink:href="#t" transform="matrix(1,0,0,1,797.9001086010383,420) translate(153.33333333333334 38)"/><path d="M798.08 300h300v60h-300z" fill="none"/><use xlink:href="#u" transform="matrix(1,0,0,1,798.0787287802415,300) translate(0 38)"/><use xlink:href="#v" transform="matrix(1,0,0,1,798.0787287802415,300) translate(192.5555555555556 38)"/><path d="M798.08 540h300v60h-300z" fill="none"/><use xlink:href="#w" transform="matrix(1,0,0,1,798.0787287802415,540) translate(0 38)"/><path d="M798.08 660h300v60h-300z" fill="none"/><use xlink:href="#x" transform="matrix(1,0,0,1,798.0787287802415,660) translate(0 38)"/><path d="M798.08 780h300v60h-300z" fill="none"/><use xlink:href="#y" transform="matrix(1,0,0,1,798.0787287802415,779.9999999999999) translate(0 38)"/><path d="M798.08 900h300v60h-300z" fill="none"/><use xlink:href="#z" transform="matrix(1,0,0,1,798.0787287802415,900) translate(0 38)"/><path d="M798.08 1020h300v60h-300z" fill="none"/><use xlink:href="#A" transform="matrix(1,0,0,1,798.0787287802415,1020) translate(0 38)"/><use xlink:href="#B" transform="matrix(1,0,0,1,798.0787287802415,1020) translate(166.55555555555557 38)"/><path d="M798.08 1140h300v60h-300z" fill="none"/><use xlink:href="#C" transform="matrix(1,0,0,1,798.0787287802415,1140) translate(0 38)"/><use xlink:href="#D" transform="matrix(1,0,0,1,798.0787287802415,1140) translate(201.66666666666669 38)"/><path d="M798.08 1260h300v60h-300z" fill="none"/><use xlink:href="#E" transform="matrix(1,0,0,1,798.0787287802415,1260) translate(0 38)"/><path d="M1078.08 220h100c11.04 0 20 8.95 20 20v1280c0 11.05-8.96 20-20 20h-760c-11.05 0-20-8.95-20-20V240c0-11.05 8.95-20 20-20h95" stroke="#000" stroke-width="5" fill="none"/><path d="M1078.14 222.5h-2.56v-5h2.56zM515.58 222.5H513v-5h2.58z"/><path d="M120 60h158.26v60H120z" fill="none"/><use xlink:href="#F" transform="matrix(1,0,0,1,120,60) translate(24.111111111111114 38)"/><path d="M273.26 120H82.5" stroke="#000" stroke-width="5" fill="none"/><path d="M275.75 119.97l.1 2.53h-2.66v-5h2.7z"/><path d="M82.56 120H80" stroke="#000" stroke-width="5" fill="none"/><path d="M80 146.57V93l40.18 26.8z" stroke="#000" stroke-width="2"/><path d="M1324.38 119.8h36.06v.2h36.06" stroke="#000" stroke-width="5" fill="none"/><path d="M1324.44 122.3h-2.72l.16-2.48-.1-2.53h2.66zM1399 122.5h-2.56v-5h2.56z"/><path d="M1400 146.8V93.2l40.18 26.8z" stroke="#000" stroke-width="2"/><path d="M795.32 1440.12c0 22.1-17.9 40-40 40s-40-17.9-40-40 17.9-40 40-40 40 17.9 40 40z" stroke="#000" stroke-width="5" fill="#fff"/><g><use xlink:href="#G" transform="matrix(1,0,0,1,720.3198205215756,1405.1212659968278) translate(22.83833333333333 42.9375)"/></g><path d="M710.32 1440.12H698c-11.05 0-20-8.95-20-20v-137.5" stroke="#000" stroke-width="5" fill="none"/><path d="M712.82 1440.1l.1 2.52h-2.67v-5h2.72z"/><path d="M678 1282.7v-2.58M800.32 1440.12H1098c11.05 0 20-8.95 20-20V1262.5" stroke="#000" stroke-width="5" fill="none"/><path d="M800.4 1442.62h-2.73l.15-2.46-.1-2.54h2.67z"/><path d="M1118 1262.56V1260" stroke="#000" stroke-width="5" fill="none"/><path d="M880 1380.12h158.08v120H880z" stroke="#000" stroke-width="5" fill="#fff"/><g><use xlink:href="#H" transform="matrix(1,0,0,1,885,1385.1212659968278) translate(23.44444444444445 38.875)"/><use xlink:href="#I" transform="matrix(1,0,0,1,885,1385.1212659968278) translate(56.77777777777778 38.875)"/><use xlink:href="#J" transform="matrix(1,0,0,1,885,1385.1212659968278) translate(21.33333333333333 86.875)"/></g><path d="M1056.47 283.5v-1" stroke="#000" stroke-width="2" fill="none"/><path d="M1057.47 283.53h-2v-1.03h2z"/><path d="M1056.47 296.76l-4.64-14.26h9.27z" stroke="#000" stroke-width="2"/><defs><path d="M142-158h-39l-4-90h48zm-75 0H28l-4-90h48" id="K"/><use transform="matrix(0.1111111111111111,0,0,0.1111111111111111,0,0)" xlink:href="#K" id="a"/><path d="M133-34C117-15 103 5 69 4 32 3 11-16 11-54c-1-60 55-63 116-61 1-26-3-47-28-47-18 1-26 9-28 27l-52-2c7-38 36-58 82-57s74 22 75 68l1 82c-1 14 12 18 25 15v27c-30 8-71 5-69-32zm-48 3c29 0 43-24 42-57-32 0-66-3-65 30 0 17 8 27 23 27" id="L"/><path d="M135-194c87-1 58 113 63 194h-50c-7-57 23-157-34-157-59 0-34 97-39 157H25l-1-190h47c2 12-1 28 3 38 12-26 28-41 61-42" id="M"/><path d="M123 10C108 53 80 86 19 72V37c35 8 53-11 59-39L3-190h52l48 148c12-52 28-100 44-148h51" id="N"/><g id="b"><use transform="matrix(0.09876543209876544,0,0,0.09876543209876544,0,0)" xlink:href="#L"/><use transform="matrix(0.09876543209876544,0,0,0.09876543209876544,19.75308641975309,0)" xlink:href="#M"/><use transform="matrix(0.09876543209876544,0,0,0.09876543209876544,41.38271604938272,0)" xlink:href="#N"/></g><path d="M190-63c-7 42-38 67-86 67-59 0-84-38-90-98-12-110 154-137 174-36l-49 2c-2-19-15-32-35-32-30 0-35 28-38 64-6 74 65 87 74 30" id="O"/><path d="M110-194c64 0 96 36 96 99 0 64-35 99-97 99-61 0-95-36-95-99 0-62 34-99 96-99zm-1 164c35 0 45-28 45-65 0-40-10-65-43-65-34 0-45 26-45 65 0 36 10 65 43 65" id="P"/><path d="M88-194c31-1 46 15 58 34l-1-101h50l1 261h-48c-2-10 0-23-3-31C134-8 116 4 84 4 32 4 16-41 15-95c0-56 19-97 73-99zm17 164c33 0 40-30 41-66 1-37-9-64-41-64s-38 30-39 65c0 43 13 65 39 65" id="Q"/><path d="M185-48c-13 30-37 53-82 52C43 2 14-33 14-96s30-98 90-98c62 0 83 45 84 108H66c0 31 8 55 39 56 18 0 30-7 34-22zm-45-69c5-46-57-63-70-21-2 6-4 13-4 21h74" id="R"/><path d="M135-194c53 0 70 44 70 98 0 56-19 98-73 100-31 1-45-17-59-34 3 33 2 69 2 105H25l-1-265h48c2 10 0 23 3 31 11-24 29-35 60-35zM114-30c33 0 39-31 40-66 0-38-9-64-40-64-56 0-55 130 0 130" id="S"/><path d="M25-224v-37h50v37H25zM25 0v-190h50V0H25" id="T"/><path d="M115-3C79 11 28 4 28-45v-112H4v-33h27l15-45h31v45h36v33H77v99c-1 23 16 31 38 25v30" id="U"/><g id="c"><use transform="matrix(0.09876543209876544,0,0,0.09876543209876544,0,0)" xlink:href="#O"/><use transform="matrix(0.09876543209876544,0,0,0.09876543209876544,19.75308641975309,0)" xlink:href="#P"/><use transform="matrix(0.09876543209876544,0,0,0.09876543209876544,41.38271604938272,0)" xlink:href="#Q"/><use transform="matrix(0.09876543209876544,0,0,0.09876543209876544,63.01234567901235,0)" xlink:href="#R"/><use transform="matrix(0.09876543209876544,0,0,0.09876543209876544,82.76543209876544,0)" xlink:href="#S"/><use transform="matrix(0.09876543209876544,0,0,0.09876543209876544,104.39506172839508,0)" xlink:href="#P"/><use transform="matrix(0.09876543209876544,0,0,0.09876543209876544,126.0246913580247,0)" xlink:href="#T"/><use transform="matrix(0.09876543209876544,0,0,0.09876543209876544,135.90123456790127,0)" xlink:href="#M"/><use transform="matrix(0.09876543209876544,0,0,0.09876543209876544,157.5308641975309,0)" xlink:href="#U"/></g><path d="M144 0l-44-69L55 0H2l70-98-66-92h53l41 62 40-62h54l-67 91 71 99h-54" id="V"/><g id="d"><use transform="matrix(0.09876543209876544,0,0,0.09876543209876544,0,0)" xlink:href="#R"/><use transform="matrix(0.09876543209876544,0,0,0.09876543209876544,19.75308641975309,0)" xlink:href="#V"/><use transform="matrix(0.09876543209876544,0,0,0.09876543209876544,39.50617283950618,0)" xlink:href="#O"/><use transform="matrix(0.09876543209876544,0,0,0.09876543209876544,59.25925925925927,0)" xlink:href="#R"/><use transform="matrix(0.09876543209876544,0,0,0.09876543209876544,79.01234567901236,0)" xlink:href="#S"/><use transform="matrix(0.09876543209876544,0,0,0.09876543209876544,100.64197530864199,0)" xlink:href="#U"/></g><use transform="matrix(0.09876543209876544,0,0,0.09876543209876544,0,0)" xlink:href="#K" id="e"/><path d="M135-150c-39-12-60 13-60 57V0H25l-1-190h47c2 13-1 29 3 40 6-28 27-53 61-41v41" id="W"/><g id="f"><use transform="matrix(0.09876543209876544,0,0,0.09876543209876544,0,0)" xlink:href="#P"/><use transform="matrix(0.09876543209876544,0,0,0.09876543209876544,21.62962962962963,0)" xlink:href="#W"/></g><path d="M76-54c-1 42 2 86-19 110H24C36 42 46 24 48 0H25v-54h51" id="X"/><use transform="matrix(0.09876543209876544,0,0,0.09876543209876544,0,0)" xlink:href="#X" id="g"/><path d="M54 7L4-261h42L97 7H54" id="Y"/><use transform="matrix(0.09876543209876544,0,0,0.09876543209876544,0,0)" xlink:href="#Y" id="h"/><path d="M25 0v-261h50V0H25" id="Z"/><g id="i"><use transform="matrix(0.09876543209876544,0,0,0.09876543209876544,0,0)" xlink:href="#O"/><use transform="matrix(0.09876543209876544,0,0,0.09876543209876544,19.75308641975309,0)" xlink:href="#P"/><use transform="matrix(0.09876543209876544,0,0,0.09876543209876544,41.38271604938272,0)" xlink:href="#M"/><use transform="matrix(0.09876543209876544,0,0,0.09876543209876544,63.01234567901235,0)" xlink:href="#U"/><use transform="matrix(0.09876543209876544,0,0,0.09876543209876544,74.76543209876544,0)" xlink:href="#W"/><use transform="matrix(0.09876543209876544,0,0,0.09876543209876544,88.59259259259261,0)" xlink:href="#P"/><use transform="matrix(0.09876543209876544,0,0,0.09876543209876544,110.22222222222223,0)" xlink:href="#Z"/></g><path d="M114-157C55-157 80-60 75 0H25v-261h50l-1 109c12-26 28-41 61-42 86-1 58 113 63 194h-50c-7-57 23-157-34-157" id="aa"/><path d="M137-138c1-29-70-34-71-4 15 46 118 7 119 86 1 83-164 76-172 9l43-7c4 19 20 25 44 25 33 8 57-30 24-41C81-84 22-81 20-136c-2-80 154-74 161-7" id="ab"/><g id="j"><use transform="matrix(0.09876543209876544,0,0,0.09876543209876544,0,0)" xlink:href="#O"/><use transform="matrix(0.09876543209876544,0,0,0.09876543209876544,19.75308641975309,0)" xlink:href="#aa"/><use transform="matrix(0.09876543209876544,0,0,0.09876543209876544,41.38271604938272,0)" xlink:href="#L"/><use transform="matrix(0.09876543209876544,0,0,0.09876543209876544,61.13580246913581,0)" xlink:href="#W"/><use transform="matrix(0.09876543209876544,0,0,0.09876543209876544,74.96296296296298,0)" xlink:href="#L"/><use transform="matrix(0.09876543209876544,0,0,0.09876543209876544,94.71604938271606,0)" xlink:href="#O"/><use transform="matrix(0.09876543209876544,0,0,0.09876543209876544,114.46913580246914,0)" xlink:href="#U"/><use transform="matrix(0.09876543209876544,0,0,0.09876543209876544,126.22222222222223,0)" xlink:href="#R"/><use transform="matrix(0.09876543209876544,0,0,0.09876543209876544,145.97530864197535,0)" xlink:href="#W"/><use transform="matrix(0.09876543209876544,0,0,0.09876543209876544,159.8024691358025,0)" xlink:href="#ab"/></g><use transform="matrix(0.1111111111111111,0,0,0.1111111111111111,0,0)" xlink:href="#Y" id="k"/><path d="M4 7l51-268h42L46 7H4" id="ac"/><use transform="matrix(0.1111111111111111,0,0,0.1111111111111111,0,0)" xlink:href="#ac" id="l"/><path d="M135-194c52 0 70 43 70 98 0 56-19 99-73 100-30 1-46-15-58-35L72 0H24l1-261h50v104c11-23 29-37 60-37zM114-30c31 0 40-27 40-66 0-37-7-63-39-63s-41 28-41 65c0 36 8 64 40 64" id="ad"/><use transform="matrix(0.1111111111111111,0,0,0.1111111111111111,0,0)" xlink:href="#ad" id="m"/><path d="M121-226c-27-7-43 5-38 36h38v33H83V0H34v-157H6v-33h28c-9-59 32-81 87-68v32" id="ae"/><use transform="matrix(0.1111111111111111,0,0,0.1111111111111111,0,0)" xlink:href="#ae" id="n"/><use transform="matrix(0.1111111111111111,0,0,0.1111111111111111,0,0)" xlink:href="#M" id="o"/><use transform="matrix(0.1111111111111111,0,0,0.1111111111111111,0,0)" xlink:href="#W" id="p"/><use transform="matrix(0.1111111111111111,0,0,0.1111111111111111,0,0)" xlink:href="#U" id="q"/><use transform="matrix(0.1111111111111111,0,0,0.1111111111111111,0,0)" xlink:href="#X" id="r"/><path d="M128 0H69L1-190h53L99-40l48-150h52" id="af"/><g id="s"><use transform="matrix(0.1111111111111111,0,0,0.1111111111111111,0,0)" xlink:href="#W"/><use transform="matrix(0.1111111111111111,0,0,0.1111111111111111,15.555555555555555,0)" xlink:href="#R"/><use transform="matrix(0.1111111111111111,0,0,0.1111111111111111,37.77777777777778,0)" xlink:href="#af"/><use transform="matrix(0.1111111111111111,0,0,0.1111111111111111,60,0)" xlink:href="#R"/><use transform="matrix(0.1111111111111111,0,0,0.1111111111111111,82.22222222222223,0)" xlink:href="#W"/><use transform="matrix(0.1111111111111111,0,0,0.1111111111111111,97.77777777777779,0)" xlink:href="#ab"/><use transform="matrix(0.1111111111111111,0,0,0.1111111111111111,120,0)" xlink:href="#R"/></g><path d="M85 4C-2 5 27-109 22-190h50c7 57-23 150 33 157 60-5 35-97 40-157h50l1 190h-47c-2-12 1-28-3-38-12 25-28 42-61 42" id="ag"/><g id="t"><use transform="matrix(0.1111111111111111,0,0,0.1111111111111111,0,0)" xlink:href="#ab"/><use transform="matrix(0.1111111111111111,0,0,0.1111111111111111,22.22222222222222,0)" xlink:href="#P"/><use transform="matrix(0.1111111111111111,0,0,0.1111111111111111,46.55555555555556,0)" xlink:href="#Z"/><use transform="matrix(0.1111111111111111,0,0,0.1111111111111111,57.66666666666668,0)" xlink:href="#T"/><use transform="matrix(0.1111111111111111,0,0,0.1111111111111111,68.77777777777779,0)" xlink:href="#Q"/><use transform="matrix(0.1111111111111111,0,0,0.1111111111111111,93.11111111111111,0)" xlink:href="#ag"/><use transform="matrix(0.1111111111111111,0,0,0.1111111111111111,117.44444444444444,0)" xlink:href="#ab"/></g><path d="M84 4C32 4 15-41 15-95c0-55 18-99 73-99 29 0 47 12 58 34l2-30h48l-1 265h-49V-32C136-9 114 4 84 4zm21-34c32 0 41-29 41-66 0-36-9-64-40-64-33 0-39 30-40 65 0 43 13 65 39 65" id="ah"/><g id="u"><use transform="matrix(0.1111111111111111,0,0,0.1111111111111111,0,0)" xlink:href="#ah"/><use transform="matrix(0.1111111111111111,0,0,0.1111111111111111,24.333333333333332,0)" xlink:href="#ag"/><use transform="matrix(0.1111111111111111,0,0,0.1111111111111111,48.666666666666664,0)" xlink:href="#P"/><use transform="matrix(0.1111111111111111,0,0,0.1111111111111111,73,0)" xlink:href="#U"/><use transform="matrix(0.1111111111111111,0,0,0.1111111111111111,86.22222222222223,0)" xlink:href="#L"/><use transform="matrix(0.1111111111111111,0,0,0.1111111111111111,108.44444444444446,0)" xlink:href="#U"/><use transform="matrix(0.1111111111111111,0,0,0.1111111111111111,121.66666666666669,0)" xlink:href="#T"/><use transform="matrix(0.1111111111111111,0,0,0.1111111111111111,132.7777777777778,0)" xlink:href="#P"/><use transform="matrix(0.1111111111111111,0,0,0.1111111111111111,157.11111111111114,0)" xlink:href="#M"/></g><path d="M220-157c-53 9-28 100-34 157h-49v-107c1-27-5-49-29-50C55-147 81-57 75 0H25l-1-190h47c2 12-1 28 3 38 10-53 101-56 108 0 13-22 24-43 59-42 82 1 51 116 57 194h-49v-107c-1-25-5-48-29-50" id="ai"/><path d="M147 0L96-86 75-71V0H25v-261h50v150l67-79h53l-66 74L201 0h-54" id="aj"/><g id="v"><use transform="matrix(0.1111111111111111,0,0,0.1111111111111111,0,0)" xlink:href="#ai"/><use transform="matrix(0.1111111111111111,0,0,0.1111111111111111,35.55555555555556,0)" xlink:href="#L"/><use transform="matrix(0.1111111111111111,0,0,0.1111111111111111,57.77777777777777,0)" xlink:href="#W"/><use transform="matrix(0.1111111111111111,0,0,0.1111111111111111,73.33333333333333,0)" xlink:href="#aj"/></g><g id="w"><use transform="matrix(0.1111111111111111,0,0,0.1111111111111111,0,0)" xlink:href="#ab"/><use transform="matrix(0.1111111111111111,0,0,0.1111111111111111,22.22222222222222,0)" xlink:href="#P"/><use transform="matrix(0.1111111111111111,0,0,0.1111111111111111,46.55555555555556,0)" xlink:href="#Z"/><use transform="matrix(0.1111111111111111,0,0,0.1111111111111111,57.66666666666668,0)" xlink:href="#T"/><use transform="matrix(0.1111111111111111,0,0,0.1111111111111111,68.77777777777779,0)" xlink:href="#Q"/><use transform="matrix(0.1111111111111111,0,0,0.1111111111111111,93.11111111111111,0)" xlink:href="#ag"/><use transform="matrix(0.1111111111111111,0,0,0.1111111111111111,117.44444444444444,0)" xlink:href="#ab"/></g><g id="x"><use transform="matrix(0.1111111111111111,0,0,0.1111111111111111,0,0)" xlink:href="#ad"/><use transform="matrix(0.1111111111111111,0,0,0.1111111111111111,24.333333333333332,0)" xlink:href="#L"/><use transform="matrix(0.1111111111111111,0,0,0.1111111111111111,46.55555555555556,0)" xlink:href="#O"/><use transform="matrix(0.1111111111111111,0,0,0.1111111111111111,68.77777777777777,0)" xlink:href="#aj"/><use transform="matrix(0.1111111111111111,0,0,0.1111111111111111,91,0)" xlink:href="#ab"/><use transform="matrix(0.1111111111111111,0,0,0.1111111111111111,113.22222222222223,0)" xlink:href="#S"/><use transform="matrix(0.1111111111111111,0,0,0.1111111111111111,137.55555555555557,0)" xlink:href="#L"/><use transform="matrix(0.1111111111111111,0,0,0.1111111111111111,159.7777777777778,0)" xlink:href="#O"/><use transform="matrix(0.1111111111111111,0,0,0.1111111111111111,182.00000000000003,0)" xlink:href="#R"/></g><g id="y"><use transform="matrix(0.1111111111111111,0,0,0.1111111111111111,0,0)" xlink:href="#ae"/><use transform="matrix(0.1111111111111111,0,0,0.1111111111111111,13.222222222222221,0)" xlink:href="#P"/><use transform="matrix(0.1111111111111111,0,0,0.1111111111111111,37.55555555555556,0)" xlink:href="#W"/><use transform="matrix(0.1111111111111111,0,0,0.1111111111111111,53.111111111111114,0)" xlink:href="#ai"/><use transform="matrix(0.1111111111111111,0,0,0.1111111111111111,88.66666666666667,0)" xlink:href="#ae"/><use transform="matrix(0.1111111111111111,0,0,0.1111111111111111,101.88888888888889,0)" xlink:href="#R"/><use transform="matrix(0.1111111111111111,0,0,0.1111111111111111,124.1111111111111,0)" xlink:href="#R"/><use transform="matrix(0.1111111111111111,0,0,0.1111111111111111,146.33333333333334,0)" xlink:href="#Q"/></g><g id="z"><use transform="matrix(0.1111111111111111,0,0,0.1111111111111111,0,0)" xlink:href="#Z"/><use transform="matrix(0.1111111111111111,0,0,0.1111111111111111,11.11111111111111,0)" xlink:href="#T"/><use transform="matrix(0.1111111111111111,0,0,0.1111111111111111,22.22222222222222,0)" xlink:href="#M"/><use transform="matrix(0.1111111111111111,0,0,0.1111111111111111,46.55555555555556,0)" xlink:href="#R"/><use transform="matrix(0.1111111111111111,0,0,0.1111111111111111,68.77777777777777,0)" xlink:href="#ae"/><use transform="matrix(0.1111111111111111,0,0,0.1111111111111111,82,0)" xlink:href="#R"/><use transform="matrix(0.1111111111111111,0,0,0.1111111111111111,104.22222222222223,0)" xlink:href="#R"/><use transform="matrix(0.1111111111111111,0,0,0.1111111111111111,126.44444444444446,0)" xlink:href="#Q"/></g><path d="M195-6C206 82 75 100 31 46c-4-6-6-13-8-21l49-6c3 16 16 24 34 25 40 0 42-37 40-79-11 22-30 35-61 35-53 0-70-43-70-97 0-56 18-96 73-97 30 0 46 14 59 34l2-30h47zm-90-29c32 0 41-27 41-63 0-35-9-62-40-62-32 0-39 29-40 63 0 36 9 62 39 62" id="ak"/><g id="A"><use transform="matrix(0.1111111111111111,0,0,0.1111111111111111,0,0)" xlink:href="#O"/><use transform="matrix(0.1111111111111111,0,0,0.1111111111111111,22.22222222222222,0)" xlink:href="#L"/><use transform="matrix(0.1111111111111111,0,0,0.1111111111111111,44.44444444444444,0)" xlink:href="#W"/><use transform="matrix(0.1111111111111111,0,0,0.1111111111111111,60,0)" xlink:href="#W"/><use transform="matrix(0.1111111111111111,0,0,0.1111111111111111,75.55555555555556,0)" xlink:href="#T"/><use transform="matrix(0.1111111111111111,0,0,0.1111111111111111,86.66666666666667,0)" xlink:href="#L"/><use transform="matrix(0.1111111111111111,0,0,0.1111111111111111,108.88888888888889,0)" xlink:href="#ak"/><use transform="matrix(0.1111111111111111,0,0,0.1111111111111111,133.22222222222223,0)" xlink:href="#R"/></g><g id="B"><use transform="matrix(0.1111111111111111,0,0,0.1111111111111111,0,0)" xlink:href="#W"/><use transform="matrix(0.1111111111111111,0,0,0.1111111111111111,15.555555555555555,0)" xlink:href="#R"/><use transform="matrix(0.1111111111111111,0,0,0.1111111111111111,37.77777777777778,0)" xlink:href="#U"/><use transform="matrix(0.1111111111111111,0,0,0.1111111111111111,51,0)" xlink:href="#ag"/><use transform="matrix(0.1111111111111111,0,0,0.1111111111111111,75.33333333333333,0)" xlink:href="#W"/><use transform="matrix(0.1111111111111111,0,0,0.1111111111111111,90.88888888888889,0)" xlink:href="#M"/></g><path d="M12 0v-35l95-120H19v-35h142v35L67-36h103V0H12" id="al"/><g id="C"><use transform="matrix(0.1111111111111111,0,0,0.1111111111111111,0,0)" xlink:href="#aa"/><use transform="matrix(0.1111111111111111,0,0,0.1111111111111111,24.333333333333332,0)" xlink:href="#P"/><use transform="matrix(0.1111111111111111,0,0,0.1111111111111111,48.666666666666664,0)" xlink:href="#W"/><use transform="matrix(0.1111111111111111,0,0,0.1111111111111111,64.22222222222221,0)" xlink:href="#T"/><use transform="matrix(0.1111111111111111,0,0,0.1111111111111111,75.33333333333333,0)" xlink:href="#al"/><use transform="matrix(0.1111111111111111,0,0,0.1111111111111111,95.33333333333333,0)" xlink:href="#P"/><use transform="matrix(0.1111111111111111,0,0,0.1111111111111111,119.66666666666666,0)" xlink:href="#M"/><use transform="matrix(0.1111111111111111,0,0,0.1111111111111111,144,0)" xlink:href="#U"/><use transform="matrix(0.1111111111111111,0,0,0.1111111111111111,157.22222222222223,0)" xlink:href="#L"/><use transform="matrix(0.1111111111111111,0,0,0.1111111111111111,179.44444444444446,0)" xlink:href="#Z"/></g><g id="D"><use transform="matrix(0.1111111111111111,0,0,0.1111111111111111,0,0)" xlink:href="#U"/><use transform="matrix(0.1111111111111111,0,0,0.1111111111111111,13.222222222222221,0)" xlink:href="#L"/><use transform="matrix(0.1111111111111111,0,0,0.1111111111111111,35.44444444444444,0)" xlink:href="#ad"/></g><g id="E"><use transform="matrix(0.1111111111111111,0,0,0.1111111111111111,0,0)" xlink:href="#O"/><use transform="matrix(0.1111111111111111,0,0,0.1111111111111111,22.22222222222222,0)" xlink:href="#P"/><use transform="matrix(0.1111111111111111,0,0,0.1111111111111111,46.55555555555556,0)" xlink:href="#ai"/><use transform="matrix(0.1111111111111111,0,0,0.1111111111111111,82.11111111111111,0)" xlink:href="#ai"/><use transform="matrix(0.1111111111111111,0,0,0.1111111111111111,117.66666666666666,0)" xlink:href="#L"/></g><g id="F"><use transform="matrix(0.1111111111111111,0,0,0.1111111111111111,0,0)" xlink:href="#ab"/><use transform="matrix(0.1111111111111111,0,0,0.1111111111111111,22.22222222222222,0)" xlink:href="#U"/><use transform="matrix(0.1111111111111111,0,0,0.1111111111111111,35.44444444444444,0)" xlink:href="#W"/><use transform="matrix(0.1111111111111111,0,0,0.1111111111111111,51,0)" xlink:href="#T"/><use transform="matrix(0.1111111111111111,0,0,0.1111111111111111,62.11111111111112,0)" xlink:href="#M"/><use transform="matrix(0.1111111111111111,0,0,0.1111111111111111,86.44444444444444,0)" xlink:href="#ak"/></g><use transform="matrix(0.1111111111111111,0,0,0.1111111111111111,0,0)" xlink:href="#ag" id="G"/><path d="M165-50V0h-47v-50H5v-38l105-160h55v161h33v37h-33zm-47-37l2-116L46-87h72" id="am"/><use transform="matrix(0.1111111111111111,0,0,0.1111111111111111,0,0)" xlink:href="#am" id="H"/><g id="I"><use transform="matrix(0.1111111111111111,0,0,0.1111111111111111,0,0)" xlink:href="#aa"/><use transform="matrix(0.1111111111111111,0,0,0.1111111111111111,24.333333333333332,0)" xlink:href="#R"/><use transform="matrix(0.1111111111111111,0,0,0.1111111111111111,46.55555555555556,0)" xlink:href="#V"/></g><g id="J"><use transform="matrix(0.1111111111111111,0,0,0.1111111111111111,0,0)" xlink:href="#Q"/><use transform="matrix(0.1111111111111111,0,0,0.1111111111111111,24.333333333333332,0)" xlink:href="#T"/><use transform="matrix(0.1111111111111111,0,0,0.1111111111111111,35.44444444444444,0)" xlink:href="#ak"/><use transform="matrix(0.1111111111111111,0,0,0.1111111111111111,59.77777777777777,0)" xlink:href="#T"/><use transform="matrix(0.1111111111111111,0,0,0.1111111111111111,70.88888888888889,0)" xlink:href="#U"/><use transform="matrix(0.1111111111111111,0,0,0.1111111111111111,84.11111111111111,0)" xlink:href="#ab"/></g></defs></g></svg>