<svg xmlns="http://www.w3.org/2000/svg" xmlns:xlink="http://www.w3.org/1999/xlink" xmlns:lucid="lucid" width="1289.32" height="717.1"><g transform="translate(0 0)" lucid:page-tab-id="8ywKFgRa5-3H"><path d="M122.5 120H640v.28h517.5M122.56 120H120M1157.44 120.28h2.56" stroke="#000" stroke-width="5" fill="none"/><path d="M599.82 200c0 22.1-17.9 40-40 40s-40-17.9-40-40 17.9-40 40-40 40 17.9 40 40zM598.57 320c0 22.1-17.9 40-40 40s-40-17.9-40-40 17.9-40 40-40 40 17.9 40 40zM597.32 440c0 22.1-17.9 40-40 40s-40-17.9-40-40 17.9-40 40-40 40 17.9 40 40zM597.32 560c0 22.1-17.9 40-40 40s-40-17.9-40-40 17.9-40 40-40 40 17.9 40 40z" stroke="#000" stroke-width="5" fill="#fff"/><path d="M512.32 560H500c-11.05 0-20-8.95-20-20V402.5" stroke="#000" stroke-width="5" fill="none"/><path d="M514.82 559.97l.1 2.53h-2.67v-5h2.72z"/><path d="M480 402.56V400M512.32 440H500c-11.05 0-20-8.95-20-20V282.5" stroke="#000" stroke-width="5" fill="none"/><path d="M514.82 439.97l.1 2.53h-2.67v-5h2.72z"/><path d="M480 282.56V280M513.57 320H500c-11.05 0-20-8.95-20-20v-80c0-11.05-8.95-20-20-20h-77.5" stroke="#000" stroke-width="5" fill="none"/><path d="M516.07 319.97l.1 2.53h-2.67v-5h2.72z"/><path d="M382.56 200H380" stroke="#000" stroke-width="5" fill="none"/><path d="M620 500h300v60H620z" fill="none"/><use xlink:href="#a" transform="matrix(1,0,0,1,620,500) translate(0 38)"/><use xlink:href="#b" transform="matrix(1,0,0,1,620,500) translate(201.66666666666669 38)"/><path d="M620 379.94h300v60H620z" fill="none"/><use xlink:href="#c" transform="matrix(1,0,0,1,620,379.9393670015864) translate(0 38)"/><use xlink:href="#d" transform="matrix(1,0,0,1,620,379.9393670015864) translate(166.55555555555557 38)"/><path d="M620 259.88h300v60H620z" fill="none"/><use xlink:href="#e" transform="matrix(1,0,0,1,620,259.87873400317267) translate(0 38)"/><use xlink:href="#f" transform="matrix(1,0,0,1,620,259.87873400317267) translate(79.88888888888889 38)"/><path d="M620 139.82h300v60H620z" fill="none"/><use xlink:href="#g" transform="matrix(1,0,0,1,620,139.818101004759) translate(0 38)"/><path d="M602.32 560H900c11.05 0 20-8.95 20-20V382.44" stroke="#000" stroke-width="5" fill="none"/><path d="M602.4 562.5h-2.73l.15-2.47-.1-2.53h2.67zM920 382.5h-2.5v-2.56h2.5z"/><path d="M602.32 440H900c11.05 0 20-8.95 20-20V262.38" stroke="#000" stroke-width="5" fill="none"/><path d="M602.4 442.5h-2.73l.15-2.47-.1-2.53h2.67zM920 262.44h-2.5v-2.56h2.5z"/><path d="M603.57 320H900c11.05 0 20-8.95 20-20v-80c0-11.05 8.95-20 20-20h77.5" stroke="#000" stroke-width="5" fill="none"/><path d="M603.64 322.5h-2.72l.15-2.47-.1-2.53h2.67z"/><path d="M1017.44 200h2.56M514.82 200H380c-11.05 0-20-8.95-20-20v-40c0-11.05-8.95-20-20-20H82.5" stroke="#000" stroke-width="5" fill="none"/><path d="M517.32 199.97l.1 2.53h-2.66v-5h2.7z"/><path d="M82.56 120H80M604.82 200H1020c11.05 0 20-8.95 20-20v-40c0-11.05 8.95-20 20-20h97.5" stroke="#000" stroke-width="5" fill="none"/><path d="M604.9 202.5h-2.73l.15-2.47-.1-2.53h2.67z"/><path d="M1157.44 120h2.56M514.82 200H380c-11.05 0-20 8.95-20 20v400c0 11.05 8.95 20 20 20h640c11.05 0 20-8.95 20-20V220c0-11.05-8.95-20-20-20H604.82" stroke="#000" stroke-width="5" fill="none"/><path d="M517.32 199.97l.1 2.53h-2.66v-5h2.7zM604.9 202.5h-2.73l.15-2.47-.1-2.53h2.67z"/><path d="M120 60h239.82v60H120z" fill="none"/><use xlink:href="#h" transform="matrix(1,0,0,1,120,60) translate(12.388888888888872 38)"/><g><path d="M80 146.57V93l40.18 26.8z" stroke="#000" stroke-width="2"/></g><g><path d="M1160 146.57V93l40.18 26.8z" stroke="#000" stroke-width="2"/></g><defs><path d="M114-157C55-157 80-60 75 0H25v-261h50l-1 109c12-26 28-41 61-42 86-1 58 113 63 194h-50c-7-57 23-157-34-157" id="i"/><path d="M110-194c64 0 96 36 96 99 0 64-35 99-97 99-61 0-95-36-95-99 0-62 34-99 96-99zm-1 164c35 0 45-28 45-65 0-40-10-65-43-65-34 0-45 26-45 65 0 36 10 65 43 65" id="j"/><path d="M135-150c-39-12-60 13-60 57V0H25l-1-190h47c2 13-1 29 3 40 6-28 27-53 61-41v41" id="k"/><path d="M25-224v-37h50v37H25zM25 0v-190h50V0H25" id="l"/><path d="M12 0v-35l95-120H19v-35h142v35L67-36h103V0H12" id="m"/><path d="M135-194c87-1 58 113 63 194h-50c-7-57 23-157-34-157-59 0-34 97-39 157H25l-1-190h47c2 12-1 28 3 38 12-26 28-41 61-42" id="n"/><path d="M115-3C79 11 28 4 28-45v-112H4v-33h27l15-45h31v45h36v33H77v99c-1 23 16 31 38 25v30" id="o"/><path d="M133-34C117-15 103 5 69 4 32 3 11-16 11-54c-1-60 55-63 116-61 1-26-3-47-28-47-18 1-26 9-28 27l-52-2c7-38 36-58 82-57s74 22 75 68l1 82c-1 14 12 18 25 15v27c-30 8-71 5-69-32zm-48 3c29 0 43-24 42-57-32 0-66-3-65 30 0 17 8 27 23 27" id="p"/><path d="M25 0v-261h50V0H25" id="q"/><g id="a"><use transform="matrix(0.1111111111111111,0,0,0.1111111111111111,0,0)" xlink:href="#i"/><use transform="matrix(0.1111111111111111,0,0,0.1111111111111111,24.333333333333332,0)" xlink:href="#j"/><use transform="matrix(0.1111111111111111,0,0,0.1111111111111111,48.666666666666664,0)" xlink:href="#k"/><use transform="matrix(0.1111111111111111,0,0,0.1111111111111111,64.22222222222221,0)" xlink:href="#l"/><use transform="matrix(0.1111111111111111,0,0,0.1111111111111111,75.33333333333333,0)" xlink:href="#m"/><use transform="matrix(0.1111111111111111,0,0,0.1111111111111111,95.33333333333333,0)" xlink:href="#j"/><use transform="matrix(0.1111111111111111,0,0,0.1111111111111111,119.66666666666666,0)" xlink:href="#n"/><use transform="matrix(0.1111111111111111,0,0,0.1111111111111111,144,0)" xlink:href="#o"/><use transform="matrix(0.1111111111111111,0,0,0.1111111111111111,157.22222222222223,0)" xlink:href="#p"/><use transform="matrix(0.1111111111111111,0,0,0.1111111111111111,179.44444444444446,0)" xlink:href="#q"/></g><path d="M135-194c52 0 70 43 70 98 0 56-19 99-73 100-30 1-46-15-58-35L72 0H24l1-261h50v104c11-23 29-37 60-37zM114-30c31 0 40-27 40-66 0-37-7-63-39-63s-41 28-41 65c0 36 8 64 40 64" id="r"/><g id="b"><use transform="matrix(0.1111111111111111,0,0,0.1111111111111111,0,0)" xlink:href="#o"/><use transform="matrix(0.1111111111111111,0,0,0.1111111111111111,13.222222222222221,0)" xlink:href="#p"/><use transform="matrix(0.1111111111111111,0,0,0.1111111111111111,35.44444444444444,0)" xlink:href="#r"/></g><path d="M190-63c-7 42-38 67-86 67-59 0-84-38-90-98-12-110 154-137 174-36l-49 2c-2-19-15-32-35-32-30 0-35 28-38 64-6 74 65 87 74 30" id="s"/><path d="M195-6C206 82 75 100 31 46c-4-6-6-13-8-21l49-6c3 16 16 24 34 25 40 0 42-37 40-79-11 22-30 35-61 35-53 0-70-43-70-97 0-56 18-96 73-97 30 0 46 14 59 34l2-30h47zm-90-29c32 0 41-27 41-63 0-35-9-62-40-62-32 0-39 29-40 63 0 36 9 62 39 62" id="t"/><path d="M185-48c-13 30-37 53-82 52C43 2 14-33 14-96s30-98 90-98c62 0 83 45 84 108H66c0 31 8 55 39 56 18 0 30-7 34-22zm-45-69c5-46-57-63-70-21-2 6-4 13-4 21h74" id="u"/><g id="c"><use transform="matrix(0.1111111111111111,0,0,0.1111111111111111,0,0)" xlink:href="#s"/><use transform="matrix(0.1111111111111111,0,0,0.1111111111111111,22.22222222222222,0)" xlink:href="#p"/><use transform="matrix(0.1111111111111111,0,0,0.1111111111111111,44.44444444444444,0)" xlink:href="#k"/><use transform="matrix(0.1111111111111111,0,0,0.1111111111111111,60,0)" xlink:href="#k"/><use transform="matrix(0.1111111111111111,0,0,0.1111111111111111,75.55555555555556,0)" xlink:href="#l"/><use transform="matrix(0.1111111111111111,0,0,0.1111111111111111,86.66666666666667,0)" xlink:href="#p"/><use transform="matrix(0.1111111111111111,0,0,0.1111111111111111,108.88888888888889,0)" xlink:href="#t"/><use transform="matrix(0.1111111111111111,0,0,0.1111111111111111,133.22222222222223,0)" xlink:href="#u"/></g><path d="M85 4C-2 5 27-109 22-190h50c7 57-23 150 33 157 60-5 35-97 40-157h50l1 190h-47c-2-12 1-28-3-38-12 25-28 42-61 42" id="v"/><g id="d"><use transform="matrix(0.1111111111111111,0,0,0.1111111111111111,0,0)" xlink:href="#k"/><use transform="matrix(0.1111111111111111,0,0,0.1111111111111111,15.555555555555555,0)" xlink:href="#u"/><use transform="matrix(0.1111111111111111,0,0,0.1111111111111111,37.77777777777778,0)" xlink:href="#o"/><use transform="matrix(0.1111111111111111,0,0,0.1111111111111111,51,0)" xlink:href="#v"/><use transform="matrix(0.1111111111111111,0,0,0.1111111111111111,75.33333333333333,0)" xlink:href="#k"/><use transform="matrix(0.1111111111111111,0,0,0.1111111111111111,90.88888888888889,0)" xlink:href="#n"/></g><g id="e"><use transform="matrix(0.1111111111111111,0,0,0.1111111111111111,0,0)" xlink:href="#q"/><use transform="matrix(0.1111111111111111,0,0,0.1111111111111111,11.11111111111111,0)" xlink:href="#l"/><use transform="matrix(0.1111111111111111,0,0,0.1111111111111111,22.22222222222222,0)" xlink:href="#n"/><use transform="matrix(0.1111111111111111,0,0,0.1111111111111111,46.55555555555556,0)" xlink:href="#u"/></g><path d="M121-226c-27-7-43 5-38 36h38v33H83V0H34v-157H6v-33h28c-9-59 32-81 87-68v32" id="w"/><path d="M88-194c31-1 46 15 58 34l-1-101h50l1 261h-48c-2-10 0-23-3-31C134-8 116 4 84 4 32 4 16-41 15-95c0-56 19-97 73-99zm17 164c33 0 40-30 41-66 1-37-9-64-41-64s-38 30-39 65c0 43 13 65 39 65" id="x"/><g id="f"><use transform="matrix(0.1111111111111111,0,0,0.1111111111111111,0,0)" xlink:href="#w"/><use transform="matrix(0.1111111111111111,0,0,0.1111111111111111,13.222222222222221,0)" xlink:href="#u"/><use transform="matrix(0.1111111111111111,0,0,0.1111111111111111,35.44444444444444,0)" xlink:href="#u"/><use transform="matrix(0.1111111111111111,0,0,0.1111111111111111,57.666666666666664,0)" xlink:href="#x"/></g><path d="M137-138c1-29-70-34-71-4 15 46 118 7 119 86 1 83-164 76-172 9l43-7c4 19 20 25 44 25 33 8 57-30 24-41C81-84 22-81 20-136c-2-80 154-74 161-7" id="y"/><path d="M135-194c53 0 70 44 70 98 0 56-19 98-73 100-31 1-45-17-59-34 3 33 2 69 2 105H25l-1-265h48c2 10 0 23 3 31 11-24 29-35 60-35zM114-30c33 0 39-31 40-66 0-38-9-64-40-64-56 0-55 130 0 130" id="z"/><g id="g"><use transform="matrix(0.1111111111111111,0,0,0.1111111111111111,0,0)" xlink:href="#y"/><use transform="matrix(0.1111111111111111,0,0,0.1111111111111111,22.22222222222222,0)" xlink:href="#z"/><use transform="matrix(0.1111111111111111,0,0,0.1111111111111111,46.55555555555556,0)" xlink:href="#p"/><use transform="matrix(0.1111111111111111,0,0,0.1111111111111111,68.77777777777777,0)" xlink:href="#s"/><use transform="matrix(0.1111111111111111,0,0,0.1111111111111111,91,0)" xlink:href="#u"/></g><path d="M231 0h-52l-39-155L100 0H48L-1-190h46L77-45c9-52 24-97 36-145h53l37 145 32-145h46" id="A"/><g id="h"><use transform="matrix(0.1111111111111111,0,0,0.1111111111111111,0,0)" xlink:href="#A"/><use transform="matrix(0.1111111111111111,0,0,0.1111111111111111,31.11111111111111,0)" xlink:href="#i"/><use transform="matrix(0.1111111111111111,0,0,0.1111111111111111,55.44444444444444,0)" xlink:href="#l"/><use transform="matrix(0.1111111111111111,0,0,0.1111111111111111,66.55555555555556,0)" xlink:href="#o"/><use transform="matrix(0.1111111111111111,0,0,0.1111111111111111,79.77777777777777,0)" xlink:href="#u"/><use transform="matrix(0.1111111111111111,0,0,0.1111111111111111,102,0)" xlink:href="#y"/><use transform="matrix(0.1111111111111111,0,0,0.1111111111111111,124.22222222222224,0)" xlink:href="#z"/><use transform="matrix(0.1111111111111111,0,0,0.1111111111111111,148.55555555555557,0)" xlink:href="#p"/><use transform="matrix(0.1111111111111111,0,0,0.1111111111111111,170.7777777777778,0)" xlink:href="#s"/><use transform="matrix(0.1111111111111111,0,0,0.1111111111111111,193.00000000000003,0)" xlink:href="#u"/></g></defs></g></svg>